<?xml version="1.0" encoding="UTF-8"?>
<svg id="Layer_2" data-name="Layer 2" xmlns="http://www.w3.org/2000/svg" viewBox="0 0 733.63 733.63">
  <defs>
    <style>
      .cls-1 {
        fill: #010101;
      }

      .cls-2 {
        fill: #f5f5f5;
      }
    </style>
  </defs>
  <g id="Layer_2-2" data-name="Layer 2">
    <g>
      <circle class="cls-2" cx="366.81" cy="366.81" r="366.81"/>
      <g>
        <path class="cls-1" d="M491.13,269.93l-73.35-.68c-7.84-.07-15.38,3.01-20.92,8.55h0c-11.4,11.4-11.4,29.89,0,41.29l149.31,149.31c5.43,5.43,12.77,8.5,20.44,8.55l68.04.47c7.81.05,15.32-3.03,20.85-8.55l2.56-2.56c11.4-11.4,11.4-29.89,0-41.29l-146.54-146.54c-5.41-5.41-12.73-8.48-20.38-8.55h0Z"/>
        <path class="cls-1" d="M466.03,489.38l.68-73.35c.07-7.84-3.01-15.38-8.55-20.92h0c-11.4-11.4-29.89-11.4-41.29,0l-149.31,149.31c-5.43,5.43-8.5,12.77-8.55,20.44l-.47,68.04c-.05,7.81,3.03,15.32,8.55,20.85l2.56,2.56c11.4,11.4,29.89,11.4,41.29,0l146.54-146.54c5.41-5.41,8.48-12.73,8.55-20.38h0Z"/>
        <path class="cls-1" d="M270.49,244.24l-.68,73.35c-.07,7.84,3.01,15.38,8.55,20.92h0c11.4,11.4,29.89,11.4,41.29,0l149.31-149.3c5.43-5.43,8.5-12.77,8.55-20.44l.47-68.04c.05-7.81-3.03-15.32-8.55-20.85l-2.56-2.56c-11.4-11.4-29.89-11.4-41.29,0l-146.54,146.54c-5.41,5.41-8.48,12.73-8.55,20.38h0Z"/>
        <path class="cls-1" d="M169.83,257.04l-73.35-.68c-7.84-.07-15.38,3.01-20.92,8.55h0c-11.4,11.4-11.4,29.89,0,41.29l152.11,152.11c5.43,5.43,12.77,8.5,20.44,8.55l68.04.47c7.81.05,15.32-3.03,20.85-8.55l2.56-2.56c11.4-11.4,11.4-29.89,0-41.29l-149.35-149.35c-5.41-5.41-12.73-8.48-20.38-8.55h0Z"/>
      </g>
    </g>
  </g>
</svg>