<?xml version="1.0" encoding="UTF-8"?>
<svg id="Layer_2" data-name="Layer 2" xmlns="http://www.w3.org/2000/svg" xmlns:xlink="http://www.w3.org/1999/xlink" viewBox="0 0 2500 600">
  <defs>
    <style>
      .cls-1 {
        fill: none;
      }

      .cls-2 {
        fill: #010101;
      }

      .cls-3 {
        clip-path: url(#clippath);
      }
    </style>
    <clipPath id="clippath">
      <rect class="cls-1" width="2500" height="600"/>
    </clipPath>
  </defs>
  <g id="Layer_1-2" data-name="Layer 1">
    <g class="cls-3">
      <g>
        <g>
          <path class="cls-2" d="M429.1,203.12l-73.35-.68c-7.84-.07-15.38,3.01-20.92,8.55h0c-11.4,11.4-11.4,29.89,0,41.29l149.31,149.31c5.43,5.43,12.77,8.5,20.44,8.55l68.04.47c7.81.05,15.32-3.03,20.85-8.55l2.56-2.56c11.4-11.4,11.4-29.89,0-41.29l-146.54-146.54c-5.41-5.41-12.73-8.48-20.38-8.55Z"/>
          <path class="cls-2" d="M404,422.57l.68-73.35c.07-7.84-3.01-15.38-8.55-20.92h0c-11.4-11.4-29.89-11.4-41.29,0l-149.31,149.31c-5.43,5.43-8.5,12.77-8.55,20.44l-.47,68.04c-.05,7.81,3.03,15.32,8.55,20.85l2.56,2.56c11.4,11.4,29.89,11.4,41.29,0l146.54-146.54c5.41-5.41,8.48-12.73,8.55-20.38Z"/>
          <path class="cls-2" d="M208.46,177.43l-.68,73.35c-.07,7.84,3.01,15.38,8.55,20.92h0c11.4,11.4,29.89,11.4,41.29,0l149.31-149.3c5.43-5.43,8.5-12.77,8.55-20.44l.47-68.04c.05-7.81-3.03-15.32-8.55-20.85l-2.56-2.56c-11.4-11.4-29.89-11.4-41.29,0l-146.54,146.54c-5.41,5.41-8.48,12.73-8.55,20.38Z"/>
          <path class="cls-2" d="M107.8,190.23l-73.35-.68c-7.84-.07-15.38,3.01-20.92,8.55h0c-11.4,11.4-11.4,29.89,0,41.29l152.11,152.11c5.43,5.43,12.77,8.5,20.44,8.55l68.04.47c7.81.05,15.32-3.03,20.85-8.55l2.56-2.56c11.4-11.4,11.4-29.89,0-41.29l-149.35-149.35c-5.41-5.41-12.73-8.48-20.38-8.55Z"/>
        </g>
        <g>
          <path class="cls-2" d="M657.7,201.63c-2.93-6-3.48-11.13-1.65-15.38,1.83-4.25,6.19-6.37,13.07-6.37h56.24c3.81,0,7.14,1.03,10,3.08,2.86,2.05,4.87,4.98,6.04,8.79,2.49,7.77,5.24,16.48,8.24,26.14,3,9.67,6.15,19.59,9.45,29.77,3.3,10.18,6.55,20.29,9.78,30.32,3.22,10.03,6.19,19.26,8.9,27.68,2.71,8.42,5.12,15.75,7.25,21.97,2.12,6.23,3.7,10.66,4.72,13.29l46.58-149.18c1.9-4.69,4.06-7.83,6.48-9.45,2.42-1.61,5.82-2.42,10.22-2.42h57.78c4.25,0,7.47.51,9.67,1.54,2.2,1.03,3.66,2.42,4.39,4.17.73,1.76.88,3.77.44,6.04-.44,2.27-1.17,4.65-2.2,7.14l-104.58,250.68c-1.61,2.64-3.52,4.87-5.71,6.7-2.2,1.83-5.49,2.75-9.89,2.75h-26.14c-5.86,0-10-.84-12.41-2.53-2.42-1.68-4.21-3.99-5.38-6.92l-101.28-247.82Z"/>
          <path class="cls-2" d="M1183.22,425.5c-12.89,11.86-27.39,21.13-43.5,27.79-16.11,6.66-33.17,10-51.19,10-20.07,0-39.04-3.66-56.9-10.98-17.87-7.32-33.54-17.47-47.02-30.43-13.48-12.96-24.17-28.23-32.08-45.81s-11.86-36.69-11.86-57.34c0-12.89,1.57-25.38,4.72-37.46,3.15-12.08,7.61-23.4,13.4-33.94,5.78-10.55,12.81-20.25,21.09-29.11,8.27-8.86,17.54-16.44,27.79-22.74,10.25-6.3,21.38-11.2,33.4-14.72,12.01-3.52,24.68-5.27,38.01-5.27,12.16,0,23.95,1.61,35.37,4.83,11.42,3.22,22.15,7.77,32.19,13.62,10.03,5.86,19.22,12.89,27.57,21.09,8.35,8.2,15.52,17.17,21.53,26.91,6,9.74,10.66,20.14,13.95,31.2,3.3,11.06,4.94,22.45,4.94,34.16,0,7.62-.11,13.84-.33,18.67-.22,4.83-1.36,8.68-3.41,11.53-2.05,2.86-5.46,4.83-10.22,5.93-4.76,1.1-11.75,1.65-20.98,1.65h-158.19c1.46,9.38,4.43,17.21,8.9,23.51,4.47,6.3,9.63,11.32,15.49,15.05,5.86,3.74,12.08,6.41,18.67,8.02,6.59,1.61,12.81,2.42,18.67,2.42,5.27,0,10.69-.55,16.26-1.65,5.56-1.1,10.95-2.56,16.15-4.39,5.2-1.83,9.96-3.96,14.28-6.37,4.32-2.42,7.8-4.94,10.44-7.58,2.34-1.9,4.36-3.33,6.04-4.28,1.68-.95,3.48-1.43,5.38-1.43s3.84.66,5.82,1.98,4.21,3.22,6.7,5.71l23.29,26.36c1.61,1.91,2.64,3.63,3.08,5.16.44,1.54.66,3.11.66,4.72,0,2.93-.81,5.46-2.42,7.58-1.61,2.12-3.52,3.99-5.71,5.6ZM1077.54,242.49c-5.71,0-11.24,1.14-16.59,3.41-5.35,2.27-10.36,5.31-15.05,9.12-4.69,3.81-8.9,8.13-12.63,12.96-3.73,4.83-6.78,9.74-9.12,14.72h112.27c-3.08-5.71-6.41-10.98-10-15.82-3.59-4.83-7.69-9.08-12.3-12.74-4.61-3.66-9.89-6.52-15.82-8.57-5.93-2.05-12.85-3.08-20.76-3.08ZM1070.29,91.99c.73-3.37,2.23-5.75,4.5-7.14,2.27-1.39,4.65-2.09,7.14-2.09h56.68c2.2,0,3.85.44,4.94,1.32,1.1.88,1.83,1.98,2.2,3.3.36,1.32.4,2.82.11,4.5-.3,1.69-.81,3.33-1.54,4.94l-21.53,47.24c-1.76,3.22-3.48,5.57-5.16,7.03-1.69,1.47-3.92,2.2-6.7,2.2h-48.11c-2.2,0-3.7-.58-4.5-1.76-.81-1.17-1.21-2.56-1.21-4.17s.22-3.37.66-5.27c.44-1.9.8-3.52,1.1-4.83l11.42-45.26Z"/>
          <path class="cls-2" d="M1261.65,196.13c0-2.78.51-5.2,1.54-7.25,1.02-2.05,2.38-3.73,4.06-5.05,1.68-1.32,3.59-2.31,5.71-2.97,2.12-.66,4.21-.99,6.26-.99h33.18c3.66,0,6.59,1.1,8.79,3.3,2.2,2.2,4.06,4.98,5.6,8.35,1.54,3.37,2.89,7.11,4.06,11.21,1.17,4.1,2.56,8.06,4.17,11.86,4.39-4.83,8.75-9.59,13.07-14.28,4.32-4.69,8.97-8.86,13.95-12.52,4.98-3.66,10.44-6.63,16.37-8.9,5.93-2.27,12.71-3.41,20.32-3.41s14.97.59,21.2,1.76c6.22,1.17,12.12,2.89,17.69,5.16,5.56,2.27,11.09,5.16,16.59,8.68,5.49,3.52,11.46,7.62,17.91,12.3,6.3,3.66,9.45,7.98,9.45,12.96,0,3.22-1.25,6.96-3.73,11.2l-19.99,34.05c-3.96,5.71-8.87,8.57-14.72,8.57-2.93,0-6.23-.8-9.89-2.42-6.3-6.15-12.71-10.73-19.22-13.73-6.52-3-13.95-4.5-22.3-4.5-5.71,0-10.73.81-15.05,2.42-4.32,1.61-8.24,3.88-11.75,6.81-3.51,2.93-6.81,6.45-9.89,10.55-3.07,4.1-6.15,8.64-9.23,13.62v159.06c0,5.57-1.36,9.78-4.06,12.63-2.71,2.86-7.22,4.28-13.51,4.28h-49.43c-11.42,0-17.14-5.64-17.14-16.92v-245.85Z"/>
          <path class="cls-2" d="M1531.44,136.37c0-4.54,1.5-7.94,4.5-10.22,3-2.27,7.28-4.43,12.85-6.48l49.87-17.36c.73-.14,1.43-.22,2.09-.22h1.87c5.42,0,9.04,1.58,10.88,4.72,1.83,3.15,2.75,7.29,2.75,12.41l-.22,60.42h30.1c4.69,0,8.49,1.39,11.42,4.17,2.93,2.78,4.39,6.96,4.39,12.52v42.4c0,6.15-1.47,10.66-4.39,13.51-2.93,2.86-6.74,4.28-11.42,4.28h-30.1l.22,185.43c0,5.57-1.61,9.78-4.83,12.63-3.22,2.86-7.69,4.28-13.4,4.28h-49.65c-11.28,0-16.92-5.64-16.92-16.92l-.22-185.43h-22.63c-11.28,0-16.92-5.93-16.92-17.8v-42.4c0-11.13,5.64-16.7,16.92-16.7h22.63l.22-43.28Z"/>
          <path class="cls-2" d="M1703.02,85.84c0-6.15,1.32-10.51,3.96-13.07,2.64-2.56,6.73-3.84,12.3-3.84h50.97c5.13,0,9.26,1.28,12.41,3.84,3.15,2.56,4.72,6.92,4.72,13.07v42.84c0,1.76-.4,3.66-1.21,5.71-.81,2.05-1.94,4.03-3.41,5.93-1.47,1.91-3.26,3.48-5.38,4.72-2.12,1.25-4.5,1.87-7.14,1.87h-50.97c-10.84,0-16.26-6.08-16.26-18.23v-42.84ZM1703.02,197.01c0-4.69,1.32-8.71,3.96-12.08,2.64-3.37,6.73-5.05,12.3-5.05h50.31c1.76,0,3.66.41,5.71,1.21,2.05.81,3.95,1.98,5.71,3.52s3.26,3.33,4.5,5.38c1.24,2.05,1.87,4.39,1.87,7.03v244.97c0,5.57-1.54,9.78-4.61,12.63s-7.47,4.28-13.18,4.28h-50.31c-10.84,0-16.26-5.64-16.26-16.92v-244.97Z"/>
          <path class="cls-2" d="M2018.73,372.99c2.05-1.46,3.99-2.38,5.82-2.75,1.83-.36,3.26-.55,4.28-.55,2.49,0,4.76.52,6.81,1.54,2.05,1.03,4.17,3.22,6.37,6.59l24.61,37.13c.73,1.17,1.43,2.49,2.09,3.96.66,1.47.99,2.64.99,3.51,0,3.37-1.06,6.12-3.19,8.24-2.12,2.12-4.43,3.99-6.92,5.6-12.01,8.35-25.16,15.05-39.44,20.1-14.28,5.05-29.41,7.58-45.37,7.58-13.18,0-25.89-1.69-38.12-5.05-12.23-3.37-23.62-8.16-34.16-14.39-10.55-6.22-20.21-13.69-29-22.41-8.79-8.71-16.26-18.42-22.41-29.11-6.15-10.69-10.95-22.22-14.39-34.6-3.44-12.38-5.16-25.3-5.16-38.78s1.72-26.44,5.16-38.89c3.44-12.45,8.24-23.98,14.39-34.6,6.15-10.62,13.62-20.28,22.41-29,8.79-8.71,18.46-16.15,29-22.3,10.55-6.15,21.93-10.91,34.16-14.28,12.23-3.37,24.94-5.05,38.12-5.05,15.96,0,30.72,2.12,44.27,6.37,13.55,4.25,26.25,10.55,38.12,18.89l-.66-.66c3.22,1.91,5.78,4.14,7.69,6.7,1.9,2.56,2.86,5.75,2.86,9.56,0,2.64-.88,5.35-2.64,8.13l-19.55,33.17c-4.1,7.18-9.08,10.77-14.94,10.77-1.32,0-2.93-.33-4.83-.99-1.91-.66-4.03-1.79-6.37-3.41-6.45-4.25-13.37-7.72-20.76-10.44-7.4-2.71-15.27-4.06-23.62-4.06-9.23,0-17.72,1.87-25.49,5.6-7.77,3.73-14.39,8.83-19.88,15.27-5.49,6.45-9.78,13.92-12.85,22.41-3.08,8.5-4.61,17.43-4.61,26.8s1.54,18.71,4.61,27.13c3.08,8.42,7.36,15.71,12.85,21.86,5.49,6.15,12.12,11.02,19.88,14.61,7.76,3.59,16.26,5.38,25.49,5.38,8.35,0,16.18-1.46,23.51-4.39,7.32-2.93,14.28-6.66,20.87-11.21Z"/>
          <path class="cls-2" d="M2345.2,425.5c-12.89,11.86-27.39,21.13-43.5,27.79-16.11,6.66-33.17,10-51.19,10-20.07,0-39.04-3.66-56.9-10.98-17.87-7.32-33.54-17.47-47.02-30.43-13.48-12.96-24.17-28.23-32.08-45.81s-11.86-36.69-11.86-57.34c0-12.89,1.57-25.38,4.72-37.46,3.15-12.08,7.61-23.4,13.4-33.94,5.79-10.55,12.82-20.25,21.09-29.11,8.27-8.86,17.54-16.44,27.79-22.74,10.25-6.3,21.38-11.2,33.39-14.72,12.01-3.52,24.68-5.27,38.01-5.27,12.16,0,23.95,1.61,35.37,4.83,11.42,3.22,22.15,7.77,32.19,13.62,10.03,5.86,19.22,12.89,27.57,21.09,8.35,8.2,15.52,17.17,21.53,26.91,6,9.74,10.66,20.14,13.95,31.2,3.29,11.06,4.94,22.45,4.94,34.16,0,7.62-.11,13.84-.33,18.67-.22,4.83-1.36,8.68-3.41,11.53-2.05,2.86-5.46,4.83-10.22,5.93-4.76,1.1-11.75,1.65-20.98,1.65h-158.19c1.46,9.38,4.43,17.21,8.9,23.51,4.47,6.3,9.63,11.32,15.49,15.05,5.86,3.74,12.08,6.41,18.67,8.02,6.59,1.61,12.81,2.42,18.67,2.42,5.27,0,10.69-.55,16.26-1.65,5.56-1.1,10.95-2.56,16.15-4.39,5.2-1.83,9.96-3.96,14.28-6.37,4.32-2.42,7.8-4.94,10.44-7.58,2.34-1.9,4.36-3.33,6.04-4.28,1.68-.95,3.48-1.43,5.38-1.43s3.84.66,5.82,1.98c1.98,1.32,4.21,3.22,6.7,5.71l23.29,26.36c1.61,1.91,2.64,3.63,3.08,5.16.44,1.54.66,3.11.66,4.72,0,2.93-.81,5.46-2.42,7.58-1.61,2.12-3.52,3.99-5.71,5.6ZM2239.53,242.49c-5.71,0-11.24,1.14-16.59,3.41-5.35,2.27-10.36,5.31-15.05,9.12-4.69,3.81-8.9,8.13-12.63,12.96-3.74,4.83-6.78,9.74-9.12,14.72h112.27c-3.08-5.71-6.41-10.98-10-15.82-3.59-4.83-7.69-9.08-12.3-12.74-4.61-3.66-9.89-6.52-15.82-8.57-5.93-2.05-12.85-3.08-20.76-3.08Z"/>
        </g>
      </g>
    </g>
  </g>
</svg>