<?xml version="1.0" encoding="UTF-8"?>
<svg id="Layer_2" data-name="Layer 2" xmlns="http://www.w3.org/2000/svg" viewBox="0 0 2500.83 669.3">
  <defs>
    <style>
      .cls-1 {
        font-family: Cocogoose, Cocogoose;
        font-size: 459.55px;
      }

      .cls-2 {
        letter-spacing: -.03em;
      }
    </style>
  </defs>
  <g id="Layer_1-2" data-name="Layer 1">
    <g>
      <g>
        <path d="M443.57,210.39l-76.72-.71c-8.2-.08-16.08,3.15-21.88,8.94h0c-11.93,11.93-11.93,31.26,0,43.19l156.15,156.15c5.67,5.67,13.36,8.89,21.38,8.94l71.15.5c8.17.06,16.03-3.16,21.81-8.94l2.67-2.67c11.93-11.93,11.93-31.26,0-43.19l-153.26-153.26c-5.66-5.66-13.31-8.87-21.31-8.94Z"/>
        <path d="M417.32,439.9l.71-76.72c.08-8.2-3.15-16.08-8.94-21.88h0c-11.93-11.93-31.26-11.93-43.19,0l-156.15,156.15c-5.67,5.67-8.89,13.36-8.94,21.38l-.5,71.15c-.06,8.17,3.16,16.03,8.94,21.81l2.67,2.67c11.93,11.93,31.26,11.93,43.19,0l153.26-153.26c5.66-5.66,8.87-13.31,8.94-21.31Z"/>
        <path d="M212.8,183.52l-.71,76.72c-.08,8.2,3.15,16.08,8.94,21.88h0c11.93,11.93,31.26,11.93,43.19,0l156.15-156.15c5.67-5.67,8.89-13.36,8.94-21.38l.5-71.15c.06-8.17-3.16-16.03-8.94-21.81l-2.67-2.67c-11.93-11.93-31.26-11.93-43.19,0l-153.26,153.26c-5.66,5.66-8.87,13.31-8.94,21.31Z"/>
        <path d="M107.54,196.91l-76.72-.71c-8.2-.08-16.08,3.15-21.88,8.94h0c-11.93,11.93-11.93,31.26,0,43.19l159.08,159.08c5.67,5.67,13.36,8.89,21.38,8.94l71.15.5c8.17.06,16.03-3.16,21.81-8.94l2.67-2.67c11.93-11.93,11.93-31.26,0-43.19l-156.19-156.19c-5.66-5.66-13.31-8.87-21.31-8.94Z"/>
      </g>
      <text class="cls-1" transform="translate(674.6 477.89)"><tspan class="cls-2" x="0" y="0">v</tspan><tspan x="279.86" y="0">értice</tspan></text>
    </g>
  </g>
</svg>